# xmcd
#
# Track frame offsets: 
#        187
#        14487
#        35200
#        57875
#        75575
#        98175
#        116625
#        132025
#        153550
#        172950
#        189887
#        204375
#        224387
#        242250
#        255825
#
# Disc length: 3625 seconds
#
# Revision: 1
# Processed by: cddbd v1.5.2PL0 Copyright (c) Steve Scherf et al.
# Submitted via: ExactAudioCopy v1.0b3
#
DISCID=bd0e270f
DTITLE=Ольга Зарубина -  Ожидание (RS 94036)
DYEAR=1994
DGENRE=Pop
TTITLE0=Не Хочу 
TTITLE1=Ожидание 
TTITLE2=Нашей Осенью Весну
TTITLE3=Дождь 
TTITLE4=Листопад 
TTITLE5=А Была Ли Я Любимой 
TTITLE6=Вечер Без Тебя 
TTITLE7=Игрушка
TTITLE8=Уехал 
TTITLE9=Туами
TTITLE10=Разгуляй 
TTITLE11=Лети Мой Милый
TTITLE12=Я Снег
TTITLE13=Будь Первым
TTITLE14=Как Никогда
EXTD=
EXTT0=
EXTT1=
EXTT2=
EXTT3=
EXTT4=
EXTT5=
EXTT6=
EXTT7=
EXTT8=
EXTT9=
EXTT10=
EXTT11=
EXTT12=
EXTT13=
EXTT14=
PLAYORDER=
